<?xml version="1.0" encoding="utf-8"?>
<!-- Generator: Adobe Illustrator 25.4.1, SVG Export Plug-In . SVG Version: 6.00 Build 0)  -->
<svg version="1.1" id="Layer_1" xmlns="http://www.w3.org/2000/svg" xmlns:xlink="http://www.w3.org/1999/xlink" x="0px" y="0px"
	 viewBox="0 0 155.5 29.1" style="enable-background:new 0 0 155.5 29.1;" xml:space="preserve">
<style type="text/css">
	.st0{fill:#3D4144;}
	.st1{fill:url(#SVGID_1_);}
	.st2{fill:none;}
	.st3{fill:#FFFFFF;}
</style>
<path class="st0" d="M42,15.9h-4.8l-1.1,3.4h-2l4.5-12.5h2.1l4.5,12.5h-2L42,15.9z M37.7,14.4h3.8l-1.8-5.5l0,0L37.7,14.4z
	 M55.1,14.7c0,2.8-1.5,4.6-3.8,4.6c-1.2,0.1-2.3-0.6-2.8-1.6l0,0v4.5h-1.9V10.2h1.8v1.5l0,0c0.6-1,1.7-1.6,2.9-1.6
	C53.6,10.1,55.1,11.9,55.1,14.7L55.1,14.7z M53.2,14.7c0-1.8-1-3-2.4-3s-2.4,1.2-2.4,3s1,3.1,2.4,3.1S53.3,16.6,53.2,14.7L53.2,14.7
	z M65.2,14.7c0,2.8-1.5,4.6-3.8,4.6c-1.2,0.1-2.3-0.6-2.9-1.6l0,0v4.5h-1.9V10.2h1.8v1.5l0,0c0.6-1,1.7-1.6,2.9-1.6
	C63.7,10.1,65.2,11.9,65.2,14.7L65.2,14.7z M63.3,14.7c0-1.8-1-3-2.4-3s-2.4,1.2-2.4,3s1,3.1,2.4,3.1S63.3,16.6,63.3,14.7L63.3,14.7
	z M66.8,6.8h1.9v12.5h-1.9V6.8z M78.8,16.6c-0.2,1.6-1.9,2.8-3.9,2.8c-2.6,0-4.3-1.8-4.3-4.6s1.6-4.7,4.2-4.7s4.1,1.7,4.1,4.5v0.6
	h-6.4v0.1c-0.1,1.3,0.8,2.5,2.1,2.6c0.1,0,0.2,0,0.3,0c0.9,0.1,1.8-0.4,2.1-1.3H78.8z M72.5,13.9H77c0.1-1.2-0.8-2.3-2-2.3
	c-0.1,0-0.2,0-0.2,0C73.5,11.6,72.4,12.6,72.5,13.9C72.4,13.9,72.4,13.9,72.5,13.9L72.5,13.9z M89.5,6.8c2.2-0.1,4,1.5,4.1,3.7
	c0,0.1,0,0.3,0,0.4c0.1,2.2-1.7,4-3.9,4.1c-0.1,0-0.2,0-0.3,0h-2.7v4.2h-1.9V6.8L89.5,6.8z M86.7,13.4H89c1.4,0.1,2.5-1,2.6-2.3
	c0.1-1.4-1-2.5-2.3-2.6c-0.1,0-0.2,0-0.3,0h-2.2V13.4z M94.5,14.7c0-2.9,1.7-4.6,4.3-4.6s4.3,1.8,4.3,4.6s-1.7,4.7-4.3,4.7
	S94.5,17.6,94.5,14.7L94.5,14.7z M101.2,14.7c0-2-0.9-3.1-2.4-3.1s-2.4,1.2-2.4,3.1s0.9,3.1,2.4,3.1S101.2,16.7,101.2,14.7
	L101.2,14.7z M104.4,14.7c0-2.8,1.6-4.6,3.8-4.6c1.2-0.1,2.3,0.6,2.9,1.6l0,0V6.8h1.9v12.5h-1.8v-1.6l0,0c-0.6,1.1-1.7,1.7-2.9,1.6
	C105.9,19.4,104.4,17.6,104.4,14.7L104.4,14.7z M106.3,14.7c0,1.9,0.9,3.1,2.4,3.1s2.4-1.2,2.4-3.1s-1-3-2.4-3
	S106.3,12.9,106.3,14.7L106.3,14.7z M121,13.3c-0.2-1-1.1-1.8-2.1-1.7c-1.4,0-2.4,1.2-2.4,3.1s1,3.1,2.4,3.1c1,0.1,1.9-0.6,2.1-1.6
	h1.8c-0.2,2-2,3.4-3.9,3.2c-2.6,0-4.3-1.8-4.3-4.7s1.7-4.6,4.3-4.6c2-0.2,3.7,1.3,3.9,3.2L121,13.3z M124,16.7
	c0-1.6,1.2-2.5,3.5-2.7l2.4-0.1v-0.7c0-1-0.7-1.6-1.9-1.6c-0.8-0.1-1.6,0.5-1.8,1.3h-1.7c0.1-1.6,1.6-2.8,3.6-2.8
	c2.2,0,3.7,1.2,3.7,3v6.2H130v-1.5l0,0c-0.6,1-1.7,1.7-2.9,1.6c-1.5,0.1-2.9-1-3-2.5C124.1,16.9,124.1,16.8,124,16.7L124,16.7z
	 M129.9,15.9v-0.7l-2.2,0.1c-1.2,0.1-1.9,0.5-1.9,1.3s0.7,1.3,1.7,1.3C128.8,18,129.8,17.2,129.9,15.9
	C129.9,15.9,129.9,15.9,129.9,15.9L129.9,15.9z M137.2,10.1c2,0,3.5,1.1,3.5,2.7H139c-0.1-0.8-0.8-1.3-1.8-1.3s-1.7,0.5-1.7,1.2
	c0,0.5,0.4,0.9,1.4,1.1l1.5,0.4c1.8,0.4,2.5,1.1,2.5,2.4c0,1.6-1.6,2.8-3.8,2.8s-3.6-1.1-3.7-2.8h1.9c0.1,0.9,0.8,1.3,2,1.3
	s1.8-0.5,1.8-1.2s-0.4-0.9-1.3-1.1l-1.6-0.4c-1.6-0.4-2.5-1.2-2.5-2.5C133.7,11.2,135.1,10.1,137.2,10.1L137.2,10.1z M145,8.1v2.1
	h1.7v1.5H145v5c0,0.8,0.4,1.1,1.1,1.1c0.2,0,0.4,0,0.6-0.1v1.5c-0.3,0.1-0.7,0.1-1,0.1c-1.8,0-2.6-0.7-2.6-2.5v-5.2h-1.3v-1.5h1.3
	V8.1L145,8.1z M151.8,10.1c2,0,3.4,1.1,3.5,2.7h-1.8c-0.1-0.8-0.8-1.3-1.8-1.3S150,12,150,12.7c0,0.5,0.4,0.9,1.4,1.1l1.5,0.4
	c1.8,0.4,2.5,1.1,2.5,2.4c0,1.6-1.6,2.8-3.8,2.8s-3.6-1.1-3.7-2.8h1.9c0.1,0.9,0.8,1.3,2,1.3s1.8-0.5,1.8-1.2s-0.3-0.9-1.3-1.1
	l-1.6-0.4c-1.6-0.4-2.5-1.2-2.5-2.5C148.2,11.2,149.7,10.1,151.8,10.1L151.8,10.1z"/>
<linearGradient id="SVGID_1_" gradientUnits="userSpaceOnUse" x1="-731.7614" y1="531.9042" x2="-731.4514" y2="531.9042" gradientTransform="matrix(5.670115e-15 92.6 92.6 -5.670115e-15 -49239.7539 67761.5469)">
	<stop  offset="0" style="stop-color:#BA6AAB"/>
	<stop  offset="1" style="stop-color:#78489C"/>
</linearGradient>
<path class="st1" d="M28.6,25.2c-0.7,1.7-2.2,3-3.9,3.5c-1.1,0.3-2.3,0.4-3.5,0.4H8c-1.2,0-2.4-0.1-3.5-0.4
	c-1.8-0.5-3.2-1.8-3.9-3.5c-0.4-1.3-0.6-2.7-0.6-4.1V8c-0.1-1.4,0.1-2.8,0.6-4.1c0.7-1.7,2.2-3,3.9-3.5C5.7,0.1,6.8,0,8,0h13.1
	c1.2,0,2.4,0.1,3.5,0.4c1.8,0.5,3.2,1.8,3.9,3.5C29,5.2,29.2,6.6,29.1,8v13.1C29.2,22.5,29,23.9,28.6,25.2z"/>
<path class="st2" d="M28.6,25.2c-0.7,1.7-2.2,3-3.9,3.5c-1.1,0.3-2.3,0.4-3.5,0.4H8c-1.2,0-2.4-0.1-3.5-0.4
	c-1.8-0.5-3.2-1.8-3.9-3.5c-0.4-1.3-0.6-2.7-0.6-4.1V8c-0.1-1.4,0.1-2.8,0.6-4.1c0.7-1.7,2.2-3,3.9-3.5C5.7,0.1,6.8,0,8,0h13.1
	c1.2,0,2.4,0.1,3.5,0.4c1.8,0.5,3.2,1.8,3.9,3.5C29,5.2,29.2,6.6,29.1,8v13.1C29.2,22.5,29,23.9,28.6,25.2z"/>
<path class="st3" d="M16.7,16.7c-0.6-0.5-1.3-0.8-2.1-0.8c-0.8,0-1.5,0.2-2.1,0.8c-0.2,0.2-0.4,0.5-0.4,0.8c-0.1,0.7-0.1,1.5,0,2.2
	c0.1,0.9,0.2,2.1,0.4,3.3c0.1,0.6,0.2,1.1,0.3,1.7c0.5,0.9,1.7,1.3,2.6,0.8c0.3-0.2,0.6-0.4,0.8-0.8c0.2-0.5,0.3-1.1,0.3-1.7
	c0.2-1.2,0.3-2.4,0.4-3.3c0.1-0.7,0.1-1.5,0-2.2C17,17.3,16.9,17,16.7,16.7z M12.2,12.6c0,1.3,1.1,2.4,2.4,2.4S17,14,17,12.7
	c0-1.3-1.1-2.4-2.4-2.4c0,0,0,0,0,0C13.3,10.3,12.2,11.3,12.2,12.6L12.2,12.6z M14.5,3.2C8.9,3.2,4.3,7.8,4.3,13.5
	c0,4.4,2.8,8.2,6.9,9.7c0.1,0,0.2,0,0.2-0.1c0,0,0,0,0-0.1c-0.1-0.4-0.1-0.7-0.2-1c0-0.1-0.1-0.2-0.2-0.3c-4.5-2-6.6-7.2-4.6-11.8
	c2-4.5,7.2-6.6,11.8-4.6c4.5,2,6.6,7.2,4.6,11.8c-0.9,2.1-2.6,3.7-4.6,4.6c-0.1,0-0.2,0.2-0.2,0.3c0,0.3-0.1,0.7-0.2,1
	c0,0.1,0,0.1,0.1,0.2c0,0,0,0,0,0H18c5.3-1.9,8.2-7.7,6.3-13C22.8,6,18.9,3.2,14.5,3.2L14.5,3.2z M14.4,7.9c3.1-0.1,5.7,2.3,5.8,5.3
	v0.2c0,1.5-0.6,3-1.8,4c-0.1,0.1-0.1,0.2-0.1,0.3c0,0.4,0,0.8,0,1.2c0,0.1,0,0.1,0.1,0.1c0,0,0,0,0,0h0.1c3.1-2.1,3.9-6.4,1.8-9.5
	c-1.3-1.9-3.4-3-5.7-3h-0.3c-3.8,0.1-6.7,3.3-6.6,7.1c0.1,2.2,1.2,4.2,3,5.4c0,0,0.1,0.1,0.2,0c0,0,0,0,0,0c0,0,0-0.1,0-0.1
	c0-0.4,0-0.8,0-1.2c0-0.1-0.1-0.3-0.2-0.3C9.6,16.5,8.9,15,9,13.4C9.1,10.4,11.4,8,14.4,7.9L14.4,7.9z"/>
</svg>
