<?xml version="1.0" encoding="utf-8"?>
<!-- Generator: Adobe Illustrator 25.4.1, SVG Export Plug-In . SVG Version: 6.00 Build 0)  -->
<svg version="1.1" id="Layer_1" xmlns="http://www.w3.org/2000/svg" xmlns:xlink="http://www.w3.org/1999/xlink" x="0px" y="0px"
	 viewBox="0 0 495.3 91" style="enable-background:new 0 0 495.3 91;" xml:space="preserve">
<style type="text/css">
	.st0{fill:#FCB72A;}
	.st1{fill:#296AB4;}
	.st2{clip-path:url(#SVGID_00000070820290765770371890000002576984320654542984_);}
	.st3{fill:#4D7CBF;}
	.st4{clip-path:url(#SVGID_00000093167545640324367120000006106110103774840242_);}
	.st5{clip-path:url(#SVGID_00000096035804635873457610000002018500059415812998_);}
	.st6{fill:#F05041;}
	.st7{fill:#2FB161;}
	.st8{clip-path:url(#SVGID_00000127039589235652305390000011925375969597576329_);}
	.st9{fill:#343C40;}
</style>
<g id="surface1">
	<path class="st0" d="M40.1,28.9V62h11.4V28.9H40.1"/>
	<path class="st1" d="M6,36.7c3.2,0,5.7,2.6,5.7,5.7c0,3.2-2.6,5.7-5.7,5.7s-5.7-2.6-5.7-5.7C0.3,39.2,2.9,36.7,6,36.7"/>
	<path class="st1" d="M6,42.9c3.2,0,5.7,2.6,5.7,5.7c0,3.2-2.6,5.7-5.7,5.7s-5.7-2.6-5.7-5.7C0.3,45.4,2.9,42.9,6,42.9"/>
	<path class="st1" d="M0.4,42.4h11.4v6.2H0.4V42.4"/>
	<g>
		<defs>
			<rect id="SVGID_1_" x="79" y="42" width="12.3" height="13"/>
		</defs>
		<clipPath id="SVGID_00000031886159488195707790000002804959121783027866_">
			<use xlink:href="#SVGID_1_"  style="overflow:visible;"/>
		</clipPath>
		<g style="clip-path:url(#SVGID_00000031886159488195707790000002804959121783027866_);">
			<path class="st3" d="M85.6,42.9c3.2,0,5.7,2.6,5.7,5.7c0,3.2-2.6,5.7-5.7,5.7s-5.7-2.6-5.7-5.7C79.9,45.4,82.5,42.9,85.6,42.9"/>
		</g>
	</g>
	<g>
		<defs>
			<rect id="SVGID_00000075873959918727335610000017033886581954855329_" x="79" y="36" width="12.3" height="13"/>
		</defs>
		<clipPath id="SVGID_00000039812685300196113650000009850110804115586958_">
			<use xlink:href="#SVGID_00000075873959918727335610000017033886581954855329_"  style="overflow:visible;"/>
		</clipPath>
		<g style="clip-path:url(#SVGID_00000039812685300196113650000009850110804115586958_);">
			<path class="st3" d="M85.6,36.7c3.2,0,5.7,2.6,5.7,5.7c0,3.2-2.6,5.7-5.7,5.7s-5.7-2.6-5.7-5.7C79.9,39.2,82.5,36.7,85.6,36.7"/>
		</g>
	</g>
	<g>
		<defs>
			<rect id="SVGID_00000090252783289002581250000009960220674120923269_" x="79" y="42" width="12.3" height="7"/>
		</defs>
		<clipPath id="SVGID_00000039096831874102685330000018178814609984754854_">
			<use xlink:href="#SVGID_00000090252783289002581250000009960220674120923269_"  style="overflow:visible;"/>
		</clipPath>
		<g style="clip-path:url(#SVGID_00000039096831874102685330000018178814609984754854_);">
			<path class="st3" d="M80,42.4h11.4v6.2H80V42.4"/>
		</g>
	</g>
	<path class="st6" d="M25.7,55.3c3.2,0,5.7,2.6,5.7,5.7s-2.6,5.7-5.7,5.7S20,64.1,20,61S22.5,55.3,25.7,55.3"/>
	<path class="st6" d="M25.7,61.5c3.2,0,5.7,2.6,5.7,5.7s-2.6,5.7-5.7,5.7S20,70.4,20,67.2S22.5,61.5,25.7,61.5"/>
	<path class="st6" d="M20,61h11.4v6.2H20V61"/>
	<path class="st6" d="M25.7,18.1c3.2,0,5.7,2.6,5.7,5.7c0,3.1-2.6,5.7-5.7,5.7S20,26.9,20,23.8C20,20.6,22.5,18.1,25.7,18.1"/>
	<path class="st6" d="M25.7,38.3c3.2,0,5.7,2.6,5.7,5.7s-2.6,5.7-5.7,5.7S20,47.1,20,44S22.5,38.3,25.7,38.3"/>
	<path class="st6" d="M20,23.8h11.4v20.3H20V23.8"/>
	<path class="st7" d="M66,24.3c3.2,0,5.7,2.6,5.7,5.7c0,3.1-2.6,5.7-5.7,5.7s-5.7-2.6-5.7-5.7C60.3,26.8,62.8,24.3,66,24.3"/>
	<path class="st7" d="M66,18.1c3.2,0,5.7,2.6,5.7,5.7c0,3.1-2.6,5.7-5.7,5.7s-5.7-2.6-5.7-5.7C60.3,20.6,62.8,18.1,66,18.1"/>
	<path class="st7" d="M60.3,23.8h11.4V30H60.3V23.8"/>
	<path class="st0" d="M45.8,6.2c3.2,0,5.7,2.6,5.7,5.7s-2.6,5.7-5.7,5.7s-5.7-2.6-5.7-5.7S42.7,6.2,45.8,6.2"/>
	<path class="st0" d="M45.8,0c3.2,0,5.7,2.6,5.7,5.7s-2.6,5.7-5.7,5.7s-5.7-2.6-5.7-5.7S42.7,0,45.8,0"/>
	<path class="st0" d="M40.1,5.7h11.4v6.2H40.1V5.7"/>
	<g>
		<defs>
			<rect id="SVGID_00000068652757112380339680000015091635656414885016_" x="40" y="79" width="12" height="12"/>
		</defs>
		<clipPath id="SVGID_00000103958981748911389540000013428379674711903928_">
			<use xlink:href="#SVGID_00000068652757112380339680000015091635656414885016_"  style="overflow:visible;"/>
		</clipPath>
		<g style="clip-path:url(#SVGID_00000103958981748911389540000013428379674711903928_);">
			<path class="st0" d="M45.8,79.6c3.2,0,5.7,2.6,5.7,5.7S49,91,45.8,91s-5.7-2.6-5.7-5.7S42.7,79.6,45.8,79.6"/>
		</g>
	</g>
	<path class="st0" d="M45.8,73.4c3.2,0,5.7,2.6,5.7,5.7s-2.6,5.7-5.7,5.7s-5.7-2.6-5.7-5.7S42.7,73.4,45.8,73.4"/>
	<path class="st0" d="M40.1,79.1h11.4v6.2H40.1V79.1"/>
	<path class="st7" d="M66,61.5c3.2,0,5.7,2.6,5.7,5.7s-2.6,5.7-5.7,5.7s-5.7-2.6-5.7-5.7S62.8,61.5,66,61.5"/>
	<path class="st7" d="M66,41.4c3.2,0,5.7,2.6,5.7,5.7s-2.6,5.7-5.7,5.7s-5.7-2.6-5.7-5.7S62.8,41.4,66,41.4"/>
	<path class="st7" d="M60.3,47.1h11.4v20.2H60.3V47.1"/>
	<path class="st0" d="M45.8,23.2c3.2,0,5.7,2.6,5.7,5.7s-2.6,5.7-5.7,5.7s-5.7-2.6-5.7-5.7S42.7,23.2,45.8,23.2"/>
	<path class="st0" d="M45.8,56.3c3.2,0,5.7,2.6,5.7,5.7s-2.6,5.7-5.7,5.7s-5.7-2.6-5.7-5.7S42.7,56.3,45.8,56.3"/>
	<path class="st9" d="M269.1,38.9c-3.2,0-7.5,2.8-7.4,8.1l12.5-5.2C273.5,40.1,271.5,38.9,269.1,38.9L269.1,38.9z M269.5,56
		c3.1,0,5.3-1.6,6.9-3.9l4.8,3.2c-2.6,3.9-7,6.2-11.7,6.2c-7.5,0.1-13.7-5.9-13.8-13.5c0-0.2,0-0.3,0-0.5c0-8.3,6-13.9,13.2-13.9
		c7.2,0,10.8,5.7,11.9,8.8l0.6,1.6l-18.7,7.7C264.2,54.5,266.4,55.9,269.5,56L269.5,56z M246.6,60.5v-41h6.1v41H246.6z M229.5,55.5
		c4.1,0,7.4-3.5,7.4-8.4s-3.3-8.5-7.4-8.5c-4.2,0-7.8,3.6-7.8,8.5C221.7,52,225.3,55.5,229.5,55.5z M236.5,34h5.9v25.1
		c0,10.3-6.1,14.6-13.3,14.6c-5.4,0-10.3-3.2-12.4-8.3l5.4-2.2c0.9,2.3,3.2,5,7,5c4.6,0,7.4-2.9,7.4-8.2v-2h-0.2
		c-1.9,2.1-4.6,3.3-7.4,3.2c-7.5-0.2-13.4-6.4-13.4-13.9c0-7.9,6.4-14,13.4-14c3.3,0,6,1.5,7.4,3.1h0.2L236.5,34z M199,55.9
		c4.2,0,7.9-3.5,7.9-8.5c0-5-3.6-8.5-7.9-8.5c-4.3,0-7.9,3.4-7.9,8.5C191.1,52.4,194.8,55.9,199,55.9L199,55.9z M199,33.5
		c7.6-0.1,13.9,6,14,13.6c0,0.1,0,0.2,0,0.4c0.1,7.6-6,13.9-13.6,14c-0.1,0-0.3,0-0.4,0c-7.6,0.1-13.9-5.9-14-13.5
		c0-0.2,0-0.3,0-0.5c-0.1-7.6,5.9-13.8,13.5-13.9C198.7,33.5,198.9,33.5,199,33.5z M168.4,55.9c4.2,0,7.9-3.5,7.9-8.5
		c0-5-3.7-8.5-7.9-8.5c-4.3,0-7.9,3.4-7.9,8.5C160.6,52.4,164.2,55.9,168.4,55.9z M168.4,33.5c7.6-0.1,13.9,5.9,14,13.5
		c0,0.1,0,0.3,0,0.4c0.1,7.6-6,13.9-13.6,14c-0.2,0-0.3,0-0.5,0c-7.6,0.1-13.9-6-14-13.6c0-0.1,0-0.3,0-0.4
		c-0.1-7.6,5.9-13.8,13.5-13.9C168.1,33.5,168.3,33.5,168.4,33.5z M110.2,39.5c0-12,10-21.7,22-21.7c5.6-0.1,10.9,2.1,14.9,6
		l-4.2,4.1c-6.2-5.9-16.1-5.6-22,0.6c-2.8,2.9-4.3,6.8-4.2,10.9c0,8.7,6.8,15.8,15.6,15.8c4.1,0.2,8.1-1.4,11-4.3
		c1.7-1.7,2.8-4.1,3.2-7.4h-14.2v-5.9h20c0.2,1.1,0.3,2.3,0.3,3.7c0.2,5.1-1.7,10.1-5.1,13.9c-4,4.1-9.5,6.3-15.2,6.1
		C120.2,61.2,110.4,51.6,110.2,39.5z M484.4,61.2c-5,0.2-9.5-2.8-11.3-7.4l4.3-1.8c1.4,3.2,3.7,4.9,7,4.9c1.5,0,2.7-0.4,3.7-1
		c0.9-0.6,1.5-1.6,1.4-2.6c0-1.7-1.2-2.8-3.6-3.4l-5.2-1.2c-1.7-0.5-3.3-1.3-4.7-2.4c-1.5-1.1-2.3-2.9-2.2-4.8c0-2.3,1-4.1,3.1-5.6
		c2.1-1.5,4.6-2.2,7.2-2.1c2.3,0,4.3,0.5,6.2,1.6c1.8,1,3.1,2.5,3.8,4.5l-4.2,1.7c-0.9-2.3-2.9-3.4-5.9-3.4c-1.4,0-2.7,0.3-3.7,0.9
		c-1,0.6-1.4,1.4-1.4,2.4c0,1.5,1.1,2.5,3.4,3l5.1,1.2c2.4,0.5,4.2,1.5,5.4,2.9c1.2,1.4,1.7,2.9,1.7,4.7c0,2.3-1,4.3-2.9,5.8
		C489.9,60.5,487.4,61.2,484.4,61.2z M467.4,60.8c-2.7,0-4.8-0.7-6.2-2.1c-1.5-1.7-2.3-3.9-2.1-6.2V38.9h-4.6v-4.5h4.6v-7.9h4.9v7.9
		h6.3v4.5h-6.3v13.2c0,2.8,1.2,4.2,3.5,4.2c0.9,0,1.7-0.2,2.2-0.4l1.7,4.1C470.2,60.6,468.9,60.8,467.4,60.8L467.4,60.8L467.4,60.8z
		 M442.6,61.2c-5,0.2-9.5-2.8-11.3-7.4l4.3-1.8c1.4,3.2,3.7,4.9,7,4.9c1.5,0,2.7-0.4,3.7-1c0.9-0.6,1.5-1.6,1.4-2.6
		c0-1.7-1.2-2.8-3.6-3.4l-5.2-1.2c-1.7-0.5-3.3-1.3-4.7-2.4c-1.5-1.1-2.3-2.9-2.2-4.8c0-2.3,1-4.1,3.1-5.6c2.1-1.5,4.6-2.2,7.2-2.1
		c2.3,0,4.3,0.5,6.2,1.6c1.8,1,3.1,2.5,3.8,4.5l-4.2,1.7c-0.9-2.3-2.9-3.4-5.9-3.4c-1.4,0-2.7,0.3-3.7,0.9c-0.9,0.6-1.4,1.4-1.4,2.4
		c0,1.5,1.1,2.5,3.4,3l5.1,1.2c2.4,0.5,4.2,1.5,5.4,2.9c1.2,1.4,1.7,2.9,1.7,4.7c0,2.3-0.9,4.3-2.9,5.8
		C448.1,60.5,445.6,61.2,442.6,61.2z M415.8,56.8c2,0,3.8-0.7,5.5-2.2c1.7-1.5,2.5-3.3,2.5-5.3c-1.4-1.1-3.5-1.7-6.2-1.7
		c-2.4,0-4.1,0.5-5.4,1.5c-1.2,1-1.8,2.2-1.8,3.6c0,1.3,0.6,2.3,1.7,3S414.4,56.8,415.8,56.8L415.8,56.8z M415,61.2
		c-2.8,0-5.1-0.8-6.9-2.4c-1.8-1.6-2.9-3.9-2.8-6.3c0-2.8,1.1-5,3.3-6.6c2.4-1.7,5.2-2.5,8.1-2.4c2.9,0,5.2,0.5,7,1.6v-0.7
		c0-1.9-0.7-3.4-2-4.5c-1.3-1.2-3-1.8-4.8-1.7c-1.4,0-2.7,0.3-3.8,1c-1.2,0.7-1.9,1.6-2.4,2.7l-4.4-1.9c0.6-1.5,1.8-3,3.6-4.3
		c1.7-1.3,4.1-2,6.9-2c3.3,0,6.1,1,8.3,2.9c2.2,1.9,3.3,4.7,3.3,8.2v15.7h-4.7v-3.6h-0.2C421.7,59.7,418.4,61.4,415,61.2L415,61.2
		L415,61.2z M391.9,61.2c-3.9,0-7.1-1.3-9.6-3.9c-2.5-2.6-3.7-5.9-3.7-9.8c0-4,1.2-7.2,3.7-9.9c2.5-2.6,5.7-3.9,9.6-3.9
		c5-0.2,9.5,2.8,11.4,7.4l-4.5,1.9c-1-3.1-4-5.1-7.2-4.9c-2.1,0-4.1,0.9-5.7,2.6c-1.7,1.8-2.4,4-2.4,6.7c0,2.7,0.8,5,2.5,6.7
		c1.7,1.8,3.5,2.6,5.7,2.6c3.6,0,6.1-1.7,7.5-4.9l4.3,1.9C401.6,58.4,397,61.4,391.9,61.2z M362.2,56.8c2.3,0,4.2-0.8,5.8-2.5
		c1.7-1.7,2.4-4,2.4-6.8c0-2.9-0.8-5.1-2.4-6.8c-1.7-1.7-3.6-2.6-5.9-2.6c-2.2,0-4.2,0.8-5.8,2.6c-1.7,1.7-2.5,4-2.5,6.8
		c0,2.9,0.8,5.1,2.5,6.8C357.9,55.9,359.9,56.8,362.2,56.8L362.2,56.8z M361.3,61.2c-3.3,0-6.2-1.3-8.7-3.9
		c-2.4-2.7-3.8-6.2-3.6-9.8c0-3.9,1.2-7.2,3.6-9.8c3.5-4.1,9.3-5.2,14-2.7c1.6,0.8,2.7,1.9,3.5,3.1h0.2l-0.2-3.6v-12h4.8v37.9h-4.6
		v-3.6h-0.2c-0.8,1.2-1.9,2.3-3.5,3.2C365.1,60.8,363.3,61.2,361.3,61.2z M327.4,54.3c3.1,3.3,8.3,3.4,11.6,0.3
		c0.1-0.1,0.2-0.2,0.3-0.3c1.7-1.7,2.5-4,2.5-6.8s-0.8-5.1-2.5-6.8c-1.7-1.7-3.6-2.6-6-2.6c-2.3,0-4.3,0.9-6,2.6
		c-1.7,1.7-2.5,4-2.5,6.8S325.7,52.5,327.4,54.3z M323.8,37.6c2.5-2.6,5.7-4,9.6-4c3.9,0,7.1,1.3,9.6,3.9c2.5,2.6,3.7,5.9,3.7,9.9
		c0,3.9-1.2,7.2-3.7,9.8c-2.5,2.6-5.7,3.9-9.6,3.9c-3.9,0-7-1.3-9.6-3.9c-2.5-2.6-3.8-5.9-3.8-9.8C320,43.5,321.3,40.2,323.8,37.6
		L323.8,37.6z M299.8,40.4h8.1c2.1,0,3.7-0.7,5-2.1c1.2-1.4,1.8-2.9,1.8-4.5c0-1.7-0.6-3.2-1.9-4.6c-1.2-1.4-2.9-2.1-4.9-2.1h-8.1
		V40.4z M299.8,60.4H295V22.5h12.9c3.2,0,6,1.1,8.3,3.2c2.4,2.1,3.5,4.8,3.5,8.1c0,3.2-1.2,5.9-3.5,8.1c-2.3,2.1-5.2,3.2-8.3,3.2
		h-8.1V60.4"/>
</g>
</svg>
