<svg id="Layer_1" data-name="Layer 1" xmlns="http://www.w3.org/2000/svg" viewBox="0 0 500 350.81"><defs><style>.cls-1{fill:red;}</style></defs><path class="cls-1" d="M741.18,380.13a63.22,63.22,0,0,0-43.88-43.85C657.84,324.59,500,324.59,500,324.59s-156.4,0-194.41,10.23a60.68,60.68,0,0,0-43.85,43.85C250,418.14,250,500,250,500a659,659,0,0,0,10.26,119.87,63.12,63.12,0,0,0,43.85,43.85C343.58,675.41,500,675.41,500,675.41s156.4,0,195.87-10.23a63.14,63.14,0,0,0,43.85-43.85,658.07,658.07,0,0,0,10.23-119.88S751.41,418.14,741.18,380.13ZM450.29,574.54V425.46L580.36,500Z" transform="translate(-250 -324.59)"/></svg>